<svg width="33" height="33" viewBox="0 0 33 33" fill="none" xmlns="http://www.w3.org/2000/svg">
<path fill-rule="evenodd" clip-rule="evenodd" d="M16.3208 0.368164C11.9393 0.368164 11.3908 0.386447 9.67008 0.464957C7.95255 0.543466 6.77921 0.816636 5.75321 1.21564C4.67774 1.62001 3.70229 2.25454 2.89568 3.0762C2.07534 3.88187 1.44042 4.85664 1.03512 5.93265C0.638268 6.95865 0.364023 8.13307 0.285513 9.8506C0.208079 11.5703 0.188721 12.1177 0.188721 16.5002C0.188721 20.8828 0.207004 21.4302 0.285513 23.151C0.364023 24.8685 0.637192 26.0418 1.03619 27.0678C1.44057 28.1433 2.0751 29.1187 2.89676 29.9254C3.70245 30.7457 4.67721 31.3806 5.75321 31.7859C6.77921 32.1838 7.95255 32.457 9.67008 32.5355C11.3908 32.614 11.9393 32.6323 16.3208 32.6323C20.7023 32.6323 21.2508 32.614 22.9715 32.5355C24.689 32.457 25.8624 32.1838 26.8884 31.7848C27.9639 31.3805 28.9393 30.7459 29.7459 29.9243C30.5663 29.1186 31.2012 28.1438 31.6065 27.0678C32.0044 26.0418 32.2776 24.8685 32.3561 23.151C32.4346 21.4302 32.4529 20.8817 32.4529 16.5002C32.4529 12.1188 32.4346 11.5703 32.3561 9.84952C32.2776 8.13199 32.0044 6.95865 31.6054 5.93265C31.2004 4.85618 30.5654 3.881 29.7448 3.07513C28.9392 2.25478 27.9644 1.61986 26.8884 1.21456C25.8624 0.817711 24.688 0.543466 22.9704 0.464957C21.2508 0.387523 20.7033 0.368164 16.3208 0.368164ZM16.3208 3.27516C20.6281 3.27516 21.1389 3.2913 22.8403 3.36873C24.4126 3.44079 25.2666 3.70213 25.8355 3.92475C26.5883 4.2162 27.1261 4.56681 27.6907 5.13035C28.2553 5.69498 28.6048 6.23271 28.8963 6.98554C29.1178 7.55447 29.3802 8.40839 29.4523 9.98073C29.5297 11.6821 29.5459 12.193 29.5459 16.5002C29.5459 20.8075 29.5297 21.3184 29.4523 23.0198C29.3802 24.5921 29.1189 25.446 28.8963 26.0149C28.6381 26.7157 28.2261 27.3496 27.6907 27.8701C27.1702 28.4057 26.5363 28.8177 25.8355 29.0757C25.2666 29.2973 24.4126 29.5597 22.8403 29.6318C21.1389 29.7092 20.6291 29.7253 16.3208 29.7253C12.0125 29.7253 11.5027 29.7092 9.80129 29.6318C8.22895 29.5597 7.37502 29.2984 6.8061 29.0757C6.10538 28.8175 5.47144 28.4056 4.95091 27.8701C4.41551 27.3495 4.00356 26.7156 3.74531 26.0149C3.52376 25.446 3.26134 24.5921 3.18929 23.0198C3.11185 21.3184 3.09572 20.8075 3.09572 16.5002C3.09572 12.193 3.11185 11.6821 3.18929 9.98073C3.26134 8.40839 3.52268 7.55447 3.74531 6.98554C4.03676 6.23271 4.38736 5.69498 4.95091 5.13035C5.47137 4.59482 6.10533 4.18284 6.8061 3.92475C7.37502 3.7032 8.22895 3.44079 9.80129 3.36873C11.5027 3.2913 12.0135 3.27516 16.3208 3.27516Z" fill="#1B98E0"/>
<path fill-rule="evenodd" clip-rule="evenodd" d="M16.3209 21.8829C15.6141 21.8829 14.9141 21.7437 14.2611 21.4732C13.608 21.2026 13.0146 20.8062 12.5148 20.3063C12.0149 19.8065 11.6184 19.2131 11.3479 18.56C11.0774 17.907 10.9382 17.207 10.9382 16.5002C10.9382 15.7933 11.0774 15.0933 11.3479 14.4403C11.6184 13.7872 12.0149 13.1938 12.5148 12.694C13.0146 12.1942 13.608 11.7977 14.2611 11.5272C14.9141 11.2566 15.6141 11.1174 16.3209 11.1174C17.7485 11.1174 19.1176 11.6845 20.1271 12.694C21.1366 13.7034 21.7037 15.0726 21.7037 16.5002C21.7037 17.9277 21.1366 19.2969 20.1271 20.3063C19.1176 21.3158 17.7485 21.8829 16.3209 21.8829ZM16.3209 8.20827C14.1218 8.20827 12.0127 9.08188 10.4577 10.6369C8.90266 12.1919 8.02905 14.301 8.02905 16.5002C8.02905 18.6993 8.90266 20.8084 10.4577 22.3634C12.0127 23.9184 14.1218 24.792 16.3209 24.792C18.5201 24.792 20.6292 23.9184 22.1842 22.3634C23.7392 20.8084 24.6128 18.6993 24.6128 16.5002C24.6128 14.301 23.7392 12.1919 22.1842 10.6369C20.6292 9.08188 18.5201 8.20827 16.3209 8.20827ZM27.0251 8.0577C27.0251 8.57754 26.8186 9.07609 26.451 9.44367C26.0834 9.81125 25.5849 10.0178 25.0651 10.0178C24.5452 10.0178 24.0467 9.81125 23.6791 9.44367C23.3115 9.07609 23.105 8.57754 23.105 8.0577C23.105 7.53787 23.3115 7.03932 23.6791 6.67174C24.0467 6.30416 24.5452 6.09766 25.0651 6.09766C25.5849 6.09766 26.0834 6.30416 26.451 6.67174C26.8186 7.03932 27.0251 7.53787 27.0251 8.0577Z" fill="#1B98E0"/>
</svg>
