<svg width="33" height="33" viewBox="0 0 33 33" fill="none" xmlns="http://www.w3.org/2000/svg">
<path d="M32.771 2.74218V30.2581C32.771 30.8872 32.5211 31.4905 32.0762 31.9354C31.6314 32.3802 31.028 32.6301 30.3989 32.6301H2.88304C2.25394 32.6301 1.65059 32.3802 1.20575 31.9354C0.760899 31.4905 0.510986 30.8872 0.510986 30.2581L0.510986 2.74218C0.510986 2.11307 0.760899 1.50972 1.20575 1.06488C1.65059 0.62003 2.25394 0.370117 2.88304 0.370117L30.3989 0.370117C31.028 0.370117 31.6314 0.62003 32.0762 1.06488C32.5211 1.50972 32.771 2.11307 32.771 2.74218ZM9.99922 12.7048H5.2551V27.886H9.99922V12.7048ZM10.4262 7.48629C10.4287 7.12744 10.3605 6.77161 10.2255 6.43911C10.0904 6.10662 9.89125 5.80398 9.63927 5.54847C9.38728 5.29296 9.08743 5.08958 8.75685 4.94996C8.42626 4.81033 8.07141 4.73719 7.71256 4.7347H7.62716C6.8974 4.7347 6.19752 5.0246 5.6815 5.54063C5.16547 6.05665 4.87557 6.75653 4.87557 7.48629C4.87557 8.21606 5.16547 8.91594 5.6815 9.43196C6.19752 9.94798 6.8974 10.2379 7.62716 10.2379C7.98604 10.2467 8.34314 10.1847 8.67806 10.0555C9.01298 9.92628 9.31916 9.73232 9.57909 9.48472C9.83903 9.23712 10.0476 8.94073 10.193 8.61249C10.3383 8.28424 10.4176 7.93057 10.4262 7.57169V7.48629ZM28.0269 18.6634C28.0269 14.0996 25.1235 12.3253 22.239 12.3253C21.2946 12.278 20.3543 12.4792 19.5119 12.9087C18.6695 13.3382 17.9544 13.9811 17.438 14.7733H17.3052V12.7048H12.8457V27.886H17.5898V19.8115C17.5212 18.9845 17.7817 18.1639 18.3147 17.5279C18.8477 16.8919 19.6101 16.4919 20.4363 16.4147H20.6166C22.1252 16.4147 23.2448 17.3635 23.2448 19.7546V27.886H27.9889L28.0269 18.6634Z" fill="#1B98E0"/>
</svg>
