<svg width="33" height="33" viewBox="0 0 33 33" fill="none" xmlns="http://www.w3.org/2000/svg">
<path fill-rule="evenodd" clip-rule="evenodd" d="M32.6374 16.5001C32.6374 25.4085 25.4158 32.6301 16.5074 32.6301C7.59909 32.6301 0.377441 25.4085 0.377441 16.5001C0.377441 7.59176 7.59909 0.370117 16.5074 0.370117C25.4158 0.370117 32.6374 7.59176 32.6374 16.5001ZM17.0854 12.278C15.5166 12.9306 12.381 14.2812 7.67878 16.3299C6.91521 16.6335 6.51522 16.9306 6.47881 17.221C6.41727 17.7119 7.03199 17.9052 7.86909 18.1684C7.98295 18.2042 8.10093 18.2413 8.22188 18.2806C9.04545 18.5483 10.1533 18.8615 10.7292 18.874C11.2516 18.8853 11.8347 18.6699 12.4785 18.2279C16.8719 15.2622 19.1398 13.7632 19.2822 13.7308C19.3826 13.708 19.5218 13.6794 19.6162 13.7632C19.7105 13.847 19.7012 14.0058 19.6912 14.0484C19.6303 14.308 17.2173 16.5513 15.9686 17.7123C15.5793 18.0742 15.3031 18.3309 15.2467 18.3896C15.1202 18.5209 14.9914 18.6451 14.8675 18.7645C14.1024 19.5021 13.5286 20.0552 14.8993 20.9585C15.5579 21.3925 16.085 21.7514 16.6108 22.1095C17.1851 22.5006 17.7579 22.8907 18.4989 23.3765C18.6877 23.5002 18.8681 23.6288 19.0437 23.754C19.712 24.2304 20.3124 24.6585 21.0542 24.5902C21.4852 24.5505 21.9304 24.1452 22.1565 22.9365C22.6909 20.0798 23.7412 13.8904 23.984 11.3398C24.0052 11.1164 23.9785 10.8304 23.957 10.7049C23.9355 10.5793 23.8906 10.4004 23.7274 10.268C23.5342 10.1112 23.2358 10.0782 23.1024 10.0805C22.4957 10.0912 21.5649 10.4148 17.0854 12.278Z" fill="#1B98E0"/>
</svg>
