<svg width="41" height="33" viewBox="0 0 41 33" fill="none" xmlns="http://www.w3.org/2000/svg">
<path d="M36.4914 8.33996C36.5157 8.69259 36.5157 9.04522 36.5157 9.4011C36.5157 20.2449 28.2606 32.7511 13.1657 32.7511V32.7446C8.70668 32.7511 4.34023 31.4738 0.586426 29.0655C1.23481 29.1435 1.88645 29.1825 2.53971 29.1842C6.23501 29.1874 9.82469 27.9475 12.7319 25.6644C9.22019 25.5977 6.14076 23.3081 5.065 19.9654C6.29514 20.2026 7.56266 20.1539 8.77005 19.824C4.94149 19.0505 2.18708 15.6867 2.18708 11.7801C2.18708 11.7444 2.18708 11.7103 2.18708 11.6761C3.32784 12.3115 4.60511 12.6642 5.91163 12.7032C2.3057 10.2932 1.19419 5.49617 3.37172 1.74561C7.53828 6.87256 13.6858 9.98936 20.285 10.3192C19.6236 7.46895 20.5271 4.48215 22.6591 2.4785C25.9644 -0.628552 31.1629 -0.4693 34.27 2.83438C36.1079 2.472 37.8694 1.79761 39.4814 0.842096C38.8688 2.74175 37.5866 4.3554 35.8739 5.38079C37.5005 5.18904 39.0898 4.75353 40.5864 4.0889C39.4847 5.73992 38.0969 7.17807 36.4914 8.33996Z" fill="#1B98E0"/>
</svg>
