<svg width="35" height="33" viewBox="0 0 35 33" fill="none" xmlns="http://www.w3.org/2000/svg">
<path d="M17.6835 0C8.32471 0 0.708312 7.3359 0.705012 16.3515C0.702812 19.2346 1.48601 22.0484 2.97101 24.5267L0.562012 33L9.56331 30.7263C12.0671 32.036 14.8512 32.7192 17.6769 32.7173H17.6835C27.0423 32.7173 34.6587 25.3803 34.662 16.3647C34.6642 11.9977 32.8998 7.887 29.6933 4.7971C26.4879 1.7061 22.2254 0.0011 17.6835 0ZM17.6835 29.9552H17.678C15.1458 29.9552 12.662 29.2996 10.495 28.061L9.97801 27.7662L4.63861 29.1148L6.06421 24.0988L5.72871 23.5851C4.3195 21.4359 3.56934 18.9215 3.57051 16.3515C3.57381 8.8572 9.90541 2.7621 17.689 2.7621C21.4576 2.7632 25.0007 4.1789 27.666 6.7474C30.3313 9.3159 31.7976 12.7314 31.7954 16.3636C31.7921 23.8579 25.4616 29.9552 17.6824 29.9552H17.6835ZM25.4242 19.7747C24.9996 19.5712 22.914 18.5823 22.5246 18.4448C22.1363 18.3095 21.8536 18.2391 21.5709 18.6483C21.2893 19.0575 20.4753 19.9782 20.2289 20.2499C19.9803 20.5227 19.7328 20.5557 19.3082 20.3522C18.8836 20.1476 17.5163 19.7164 15.8971 18.3238C14.6354 17.2414 13.784 15.9038 13.5365 15.4935C13.289 15.0854 13.5101 14.8643 13.7224 14.6608C13.9127 14.4793 14.147 14.1845 14.3582 13.9458C14.5694 13.7071 14.6398 13.5366 14.7828 13.2638C14.9236 12.9921 14.8532 12.7523 14.7465 12.5488C14.6398 12.3431 13.7928 10.3323 13.4375 9.515C13.0943 8.7186 12.7445 8.8253 12.4838 8.8121C12.2363 8.8011 11.9547 8.7978 11.6698 8.7978C11.3893 8.7978 10.9284 8.9001 10.539 9.3093C10.1507 9.7185 9.05401 10.7063 9.05401 12.7171C9.05401 14.729 10.5742 16.6716 10.7865 16.9444C10.9988 17.2161 13.7785 21.3444 18.0344 23.1154C19.0464 23.5345 19.8362 23.7864 20.4533 23.9756C21.4697 24.2869 22.3948 24.2418 23.1252 24.1373C23.9392 24.0196 25.6354 23.1495 25.9874 22.1958C26.3416 21.2421 26.3416 20.4237 26.236 20.2532C26.1326 20.0827 25.8488 19.9804 25.4242 19.7747Z" fill="#1B98E0"/>
</svg>
